<svg id="Layer_1" data-name="Layer 1" xmlns="http://www.w3.org/2000/svg" xmlns:xlink="http://www.w3.org/1999/xlink" viewBox="0 0 432 432"><defs><style>.cls-1,.cls-3{stroke:#231f20;stroke-miterlimit:10;stroke-width:5px;}.cls-1{fill:url(#Orange_Yellow);}.cls-2{fill:none;stroke:#2e3192;stroke-linecap:round;stroke-linejoin:round;stroke-width:6px;}.cls-3{fill:#fff;}.cls-4{fill:url(#Orange_Yellow-2);}</style><linearGradient id="Orange_Yellow" x1="86.55" y1="142.94" x2="352.18" y2="296.3" gradientTransform="translate(-3.36 -0.15)" gradientUnits="userSpaceOnUse"><stop offset="0" stop-color="#fff33b"/><stop offset="0.04" stop-color="#ffe62d"/><stop offset="0.12" stop-color="#fed51a"/><stop offset="0.2" stop-color="#feca0f"/><stop offset="0.28" stop-color="#fec70b"/><stop offset="0.67" stop-color="#f3913f"/><stop offset="0.89" stop-color="#ee693c"/><stop offset="1" stop-color="#e93f3a"/></linearGradient><linearGradient id="Orange_Yellow-2" x1="424.67" y1="216.3" x2="7.33" y2="216.3" gradientTransform="matrix(1, 0, 0, 1, 0, 0)" xlink:href="#Orange_Yellow"/></defs><path class="cls-1" d="M298.26,66.1H133.75a10.91,10.91,0,0,0-9.44,5.45L42.06,214a10.87,10.87,0,0,0,0,10.89l82.25,142.47a10.91,10.91,0,0,0,9.44,5.45H298.26a10.89,10.89,0,0,0,9.43-5.45L390,224.91A10.92,10.92,0,0,0,390,214L307.69,71.55A10.89,10.89,0,0,0,298.26,66.1Z"/><path class="cls-2" d="M12.17,226.86c-6.12-3.53,7.31-22.66,14.13-24.49C109,180.21,240.22,395.8,322.94,373.63c6.82-1.83,16-17.65,14.13-24.48C314.91,266.44,62.6,260.6,40.44,177.89c-1.78-6.64,7.1-22,13.73-23.79,82.72-22.16,213.92,193.42,296.64,171.26,6.63-1.78,15.51-17.15,13.73-23.79C342.38,218.86,90.07,213,67.91,130.31c-1.81-6.73,7.2-22.33,13.93-24.13C164.56,84,295.76,299.6,378.48,277.44c6.63-1.78,15.51-17.16,13.73-23.79C370.05,170.94,117.74,165.1,95.58,82.39c-1.8-6.7,7.17-22.23,13.87-24C192.16,36.2,323.37,251.79,406.08,229.63c6.66-1.79,19.77-20.45,13.8-23.9"/><path class="cls-3" d="M303.43,173.06h-175a2.59,2.59,0,0,0-1.89.81L83.87,218.66a2.62,2.62,0,0,1-1.88.81H43.43a2.61,2.61,0,0,1-2.26-3.92L126.71,67.41A2.59,2.59,0,0,1,129,66.1H303a2.62,2.62,0,0,1,2.26,1.31l85.53,148.14a2.61,2.61,0,0,1-2.25,3.92H349.94a2.64,2.64,0,0,1-1.89-.81l-42.73-44.79A2.6,2.6,0,0,0,303.43,173.06ZM269.5,129.23,254.13,98.47A2.62,2.62,0,0,0,251.79,97H180.15a2.61,2.61,0,0,0-2.34,1.45l-15.32,30.76a2.61,2.61,0,0,0,2.34,3.77H267.17A2.61,2.61,0,0,0,269.5,129.23Z"/><path class="cls-3" d="M43.43,219.47H81.72a2.6,2.6,0,0,1,2.16,1.14L158,329.79a2.61,2.61,0,0,0,4.53-.38l37.24-82.06a2.6,2.6,0,0,1,2.37-1.53h27.67a2.6,2.6,0,0,1,2.37,1.53l37.28,82a2.61,2.61,0,0,0,4.53.39l74.05-109.11a2.58,2.58,0,0,1,2.15-1.14h38.38a2.6,2.6,0,0,1,2.25,3.91L305.3,371.53a2.63,2.63,0,0,1-2.26,1.3H233.68a2.61,2.61,0,0,1-2.58-2.26l-6.34-47.07a2.61,2.61,0,0,0-2.59-2.26H209.83a2.6,2.6,0,0,0-2.58,2.26l-6.34,47.07a2.61,2.61,0,0,1-2.58,2.26H129a2.6,2.6,0,0,1-2.25-1.3L41.17,223.38A2.61,2.61,0,0,1,43.43,219.47Z"/><path class="cls-4" d="M26.3,202.37a10.09,10.09,0,0,0-3.13,1.88,25.42,25.42,0,0,0-2.65,2.54A45.64,45.64,0,0,0,16,212.58a42.17,42.17,0,0,0-3.54,6.36,18.53,18.53,0,0,0-1.15,3.36,4.6,4.6,0,0,0,.06,3,1.32,1.32,0,0,0,.91.64c.54.12,1.18.22,1.77.32l3.61.66,3.61.66c1.2.23,2.42.32,3.64.48l7.28.89,7.32.51,3.66.25,3.67.12,7.33.23,7.35,0c2.45,0,4.9,0,7.35-.13,4.89-.18,9.79-.29,14.68-.62l7.34-.43,7.33-.59c19.55-1.63,39.07-3.89,58.54-6.56s38.94-5.46,58.42-8.36,39-5.62,58.55-8.06,39.2-4.53,58.93-5.65l7.4-.41c2.46-.13,4.94-.18,7.41-.27s4.93-.2,7.41-.22l7.41,0H366l3.71.1,7.42.2c2.47.1,4.94.31,7.41.45s4.94.28,7.4.6l7.38.83c2.46.32,4.9.78,7.34,1.17l3.67.6,3.62.82,3.63.82,1.81.42a4.18,4.18,0,0,1,2.05.91,3.38,3.38,0,0,1,.94,2.19,7.23,7.23,0,0,1-.18,2,17.23,17.23,0,0,1-1.31,3.61,41,41,0,0,1-3.89,6.39,49.18,49.18,0,0,1-4.87,5.62,27,27,0,0,1-2.82,2.41,10.34,10.34,0,0,1-3.27,1.71,10.12,10.12,0,0,0,3.13-1.89,26.39,26.39,0,0,0,2.63-2.55,47.17,47.17,0,0,0,4.45-5.82,39.53,39.53,0,0,0,3.46-6.39,15.76,15.76,0,0,0,1-3.37c.19-1.1.11-2.29-.44-2.74a2.82,2.82,0,0,0-1.33-.42l-1.81-.32-3.61-.66-3.6-.65-3.65-.45c-2.43-.27-4.84-.63-7.28-.84l-7.32-.51c-2.44-.22-4.89-.26-7.34-.34s-4.88-.18-7.33-.2l-7.35,0-3.67,0-3.67.13-7.35.25c-2.45.09-4.89.27-7.34.39s-4.89.26-7.34.45l-7.33.58C313.48,206,294,208.27,274.5,211s-38.95,5.48-58.42,8.37c-39,5.57-78,11.31-117.49,13.64l-7.4.41-7.41.26c-4.94.22-9.88.22-14.83.23-2.47,0-4.94,0-7.42-.12l-7.41-.2-7.42-.48-3.7-.24c-1.23-.1-2.46-.26-3.69-.39l-7.38-.83-7.34-1.2c-1.22-.22-2.45-.36-3.66-.64l-3.62-.82-3.63-.83c-.61-.15-1.18-.26-1.83-.44a3,3,0,0,1-1.91-1.55,4.22,4.22,0,0,1-.37-2.21,8.92,8.92,0,0,1,.35-2,21.2,21.2,0,0,1,1.42-3.55,43.37,43.37,0,0,1,4-6.33,47.37,47.37,0,0,1,4.9-5.59,27,27,0,0,1,2.83-2.4A10.31,10.31,0,0,1,26.3,202.37Z"/></svg>